<?xml version="1.0" standalone="no"?>
<!DOCTYPE svg PUBLIC "-//W3C//DTD SVG 20010904//EN"
 "http://www.w3.org/TR/2001/REC-SVG-20010904/DTD/svg10.dtd">
<svg version="1.0" xmlns="http://www.w3.org/2000/svg"
 width="910.000000pt" height="910.000000pt" viewBox="0 0 910.000000 910.000000"
 preserveAspectRatio="xMidYMid meet">
<metadata>
Created by potrace 1.11, written by Peter Selinger 2001-2013
</metadata>
<g transform="translate(0.000000,910.000000) scale(0.100000,-0.100000)"
fill="#000000" stroke="none">
<path d="M3578 7515 c-2 -2 -30 -6 -63 -9 -125 -12 -299 -52 -425 -98 -121
-44 -280 -119 -280 -132 0 -9 107 -257 235 -541 12 -27 39 -88 60 -135 21 -47
46 -103 55 -125 10 -22 37 -83 60 -135 23 -52 50 -113 60 -135 10 -22 32 -74
50 -115 18 -41 45 -102 60 -135 16 -33 37 -80 47 -105 l20 -46 -21 -29 c-16
-24 -147 -190 -239 -305 -7 -8 -35 -44 -62 -80 -28 -36 -52 -67 -55 -70 -3 -3
-81 -102 -174 -220 -92 -118 -181 -231 -196 -250 -16 -19 -117 -147 -225 -285
-107 -137 -206 -263 -220 -280 -13 -16 -62 -79 -109 -140 -48 -60 -92 -117
-99 -125 -7 -8 -37 -47 -67 -85 -30 -38 -60 -77 -67 -85 -7 -8 -132 -168 -278
-355 -147 -187 -274 -349 -283 -360 -10 -11 -40 -49 -67 -85 -28 -36 -52 -67
-56 -70 -3 -3 -18 -23 -35 -45 -16 -22 -33 -45 -39 -51 -5 -6 -17 -22 -25 -34
-8 -12 -33 -47 -56 -78 -75 -105 -164 -266 -202 -367 -38 -99 -45 -221 -18
-287 29 -68 77 -102 251 -178 68 -29 159 -57 248 -75 102 -21 360 -22 463 -1
16 3 45 8 64 10 113 17 446 109 466 129 4 4 13 7 20 7 45 0 495 213 719 340
22 12 56 31 75 42 19 11 47 27 62 36 15 9 60 37 100 61 148 89 414 266 588
389 112 80 412 302 420 311 3 3 43 35 90 70 47 36 110 85 141 110 31 25 73 60
94 76 21 17 67 54 103 82 l64 53 31 -39 c18 -21 62 -77 98 -122 224 -285 573
-714 715 -879 225 -262 341 -388 505 -550 200 -198 304 -269 439 -300 19 -5
45 -11 56 -13 31 -8 112 -19 219 -32 211 -25 890 -25 1350 0 82 5 77 2 71 43
-34 223 -108 322 -243 320 -31 0 -69 9 -99 22 -50 23 -156 94 -209 141 -16 14
-57 50 -90 79 -107 94 -375 369 -535 549 -111 126 -164 184 -177 198 -7 8 -29
35 -50 61 -21 26 -40 49 -43 52 -13 11 -142 182 -212 280 -104 147 -278 408
-385 580 -147 237 -373 616 -373 626 0 3 -8 18 -19 32 -17 25 -270 477 -358
642 -22 41 -52 95 -65 120 -36 66 -105 195 -193 365 -43 83 -107 204 -142 270
-35 66 -206 403 -379 750 -173 346 -317 631 -318 633 -4 3 -172 49 -206 56
-14 2 -48 9 -77 15 -29 6 -74 13 -100 17 -26 3 -57 8 -68 11 -24 5 -392 13
-397 8z m206 -2270 c30 -57 159 -286 173 -310 7 -11 16 -27 20 -35 4 -8 32
-60 63 -115 55 -97 187 -333 238 -425 14 -25 45 -80 69 -123 100 -177 96 -168
81 -182 -12 -11 -234 -156 -275 -180 -10 -6 -85 -55 -168 -109 -82 -54 -199
-131 -260 -170 -60 -39 -171 -111 -247 -161 -76 -49 -186 -121 -245 -160 -60
-38 -191 -124 -293 -190 -171 -113 -277 -181 -407 -264 -28 -18 -55 -33 -60
-33 -4 0 -17 -5 -27 -10 -10 -6 -53 -12 -95 -14 -61 -2 -80 1 -97 14 -62 51
-56 132 22 297 55 116 147 259 599 925 50 74 186 275 300 445 115 171 272 402
348 515 76 113 157 233 180 268 22 34 45 61 50 59 5 -1 19 -21 31 -42z"/>
</g>
</svg>
